<svg width="612" height="419" viewBox="0 0 612 419" fill="none" xmlns="http://www.w3.org/2000/svg">
<path d="M534.563 185.871L438.688 71.6906H250.192L135 183.891L137.327 185.387H136.495V418.763H534.432V185.387L534.563 185.871Z" fill="#3F3D56"/>
<path d="M476.881 61H455.147V136.231H476.881V61Z" fill="#3F3D56"/>
<path d="M440.184 70.1946L322 208.753V418.763H534.432V182.395L440.184 70.1946Z" fill="#5CA3AF"/>
<path d="M392.695 236.251H349.311V280.611H392.695V236.251Z" fill="white"/>
<path d="M392.695 296.611H349.311V340.971H392.695V296.611Z" fill="white"/>
<path d="M452.695 236.251H409.311V280.611H452.695V236.251Z" fill="white"/>
<path d="M452.695 296.611H409.311V340.971H452.695V296.611Z" fill="white"/>
<path d="M512.695 236.251H469.311V280.611H512.695V236.251Z" fill="white"/>
<path d="M512.695 296.611H469.311V340.971H512.695V296.611Z" fill="white"/>
<path d="M121.883 317.827C164.897 317.827 199.767 246.679 199.767 158.914C199.767 71.1481 164.897 0 121.883 0C78.8696 0 44 71.1481 44 158.914C44 246.679 78.8696 317.827 121.883 317.827Z" fill="#5CA3AF"/>
<path d="M130.976 418.714C99.8366 231.877 130.662 45.7216 130.977 43.8633L133.244 44.2473C132.93 46.1022 102.17 231.891 133.245 418.337L130.976 418.714Z" fill="#3F3D56"/>
<path d="M191.363 126.441L120.934 164.113L122.018 166.14L192.448 128.469L191.363 126.441Z" fill="#3F3D56"/>
<path d="M47.6887 145.313L46.6035 147.34L117.023 185.03L118.108 183.003L47.6887 145.313Z" fill="#3F3D56"/>
<path d="M611.5 417H1V419H611.5V417Z" fill="#3F3D56"/>
</svg>
