<svg width="195" height="189" viewBox="0 0 195 189" fill="none" xmlns="http://www.w3.org/2000/svg">
<mask id="mask0" mask-type="alpha" maskUnits="userSpaceOnUse" x="0" y="0" width="174" height="174">
<rect width="174" height="174" rx="26" fill="#C4C4C4"/>
</mask>
<g mask="url(#mask0)">
<path fill-rule="evenodd" clip-rule="evenodd" d="M216.207 -180.293L-154.293 190.207L-155.707 188.793L214.793 -181.707L216.207 -180.293ZM225.207 -168.293L-145.293 202.207L-146.707 200.793L223.793 -169.707L225.207 -168.293ZM242.207 -165.293L-128.293 205.207L-129.707 203.793L240.793 -166.707L242.207 -165.293ZM251.207 -153.293L-119.293 217.207L-120.707 215.793L249.793 -154.707L251.207 -153.293ZM263.207 -145.293L-107.293 225.207L-108.707 223.793L261.793 -146.707L263.207 -145.293ZM272.207 -133.293L-98.2929 237.207L-99.7071 235.793L270.793 -134.707L272.207 -133.293ZM289.207 -130.293L-81.2929 240.207L-82.7071 238.793L287.793 -131.707L289.207 -130.293ZM298.207 -118.293L-72.2929 252.207L-73.7071 250.793L296.793 -119.707L298.207 -118.293ZM310.207 -109.293L-60.2929 261.207L-61.7071 259.793L308.793 -110.707L310.207 -109.293ZM319.207 -97.2929L-51.2929 273.207L-52.7071 271.793L317.793 -98.7071L319.207 -97.2929ZM336.207 -94.2929L-34.2929 276.207L-35.7071 274.793L334.793 -95.7071L336.207 -94.2929ZM345.207 -82.2929L-25.2929 288.207L-26.7071 286.793L343.793 -83.7071L345.207 -82.2929ZM357.207 -74.2929L-13.2929 296.207L-14.7071 294.793L355.793 -75.7071L357.207 -74.2929ZM366.207 -62.2929L-4.29288 308.207L-5.70709 306.793L364.793 -63.7071L366.207 -62.2929ZM383.207 -59.2929L12.7071 311.207L11.2929 309.793L381.793 -60.7071L383.207 -59.2929Z" fill="#D6D6D6"/>
</g>
<rect x="1" y="1" width="172" height="172" rx="25" stroke="#D6D6D6" stroke-width="2"/>
<path d="M143.5 172.5L157 161L149 181.5L106.5 173.5L143.5 172.5Z" fill="#D6D6D6"/>
<path d="M161.5 181C150.453 183.443 139.896 181.364 135.455 171.103C130 158.5 139.027 144.852 151.455 142.103C158.19 140.299 156.184 147.565 158.888 157.655C161.591 167.744 165 180 161.5 181Z" fill="#2F7581"/>
<path d="M171.103 152.356C173.858 156.96 174.813 162.385 173.756 167.439C172.699 172.493 169.718 176.761 165.468 179.305C161.218 181.849 156.048 182.46 151.094 181.004C146.141 179.548 141.81 176.144 139.054 171.541C138.725 170.991 138.425 170.435 138.151 169.872C135.878 165.198 135.368 159.92 136.728 155.132C138.087 150.344 141.211 146.415 145.452 144.161C149.692 141.907 154.723 141.501 159.5 143.027C164.276 144.553 168.432 147.894 171.103 152.356V152.356Z" fill="#5CA3AF"/>
<path d="M160.541 160.245C159.821 159.925 159.048 159.792 158.293 159.861C157.372 159.964 156.466 160.145 155.585 160.403L152.756 155.679C154.044 155.168 155.469 155.053 156.87 155.346L156.532 152.771C155.728 152.585 154.909 152.544 154.112 152.649C153.225 152.762 152.366 152.998 151.556 153.352L150.122 150.958L148.072 152.185L149.519 154.603C148.785 155.174 148.188 155.909 147.767 156.76C147.385 157.527 147.195 158.392 147.213 159.281C147.239 160.143 147.496 160.998 147.957 161.749C148.411 162.588 149.114 163.265 149.952 163.671C150.702 164.008 151.508 164.146 152.296 164.074C153.234 163.974 154.157 163.792 155.055 163.529L157.765 168.057C156.313 168.772 154.654 168.992 153.009 168.686L153.35 171.263C154.273 171.442 155.209 171.452 156.113 171.295C157.106 171.125 158.062 170.811 158.953 170.362L160.374 172.736L162.425 171.509L160.977 169.091C162.035 168.274 162.786 167.104 163.117 165.756C163.256 165.152 163.271 164.516 163.16 163.888C163.049 163.259 162.816 162.652 162.473 162.105C162.033 161.292 161.352 160.638 160.541 160.245V160.245ZM153.517 160.961C152.919 161.096 152.293 161.104 151.676 160.985C151.424 160.927 151.184 160.812 150.974 160.65C150.763 160.487 150.586 160.28 150.456 160.045C150.128 159.529 150.001 158.914 150.103 158.334C150.231 157.713 150.545 157.163 151.002 156.76L153.517 160.961ZM160.32 165.392C160.204 165.985 159.905 166.509 159.468 166.89L157.136 162.995C157.686 162.851 158.265 162.826 158.841 162.921C159.065 162.968 159.28 163.067 159.47 163.21C159.659 163.352 159.818 163.535 159.935 163.745C160.256 164.238 160.394 164.827 160.32 165.392V165.392Z" fill="white"/>
<path d="M185.595 152.5C177.595 160.5 169 159.5 158.595 150C147.316 139.703 146.595 131 155.595 122C160.302 116.857 167.89 122.259 175.595 129.312C183.3 136.365 190.302 147.357 185.595 152.5Z" fill="#2F7581"/>
<path d="M179.49 128.024C183.545 132.009 186.506 136.774 187.723 141.272C188.939 145.77 188.311 149.631 185.976 152.007C183.642 154.383 179.792 155.078 175.274 153.94C170.755 152.803 165.939 149.925 161.884 145.94C161.399 145.464 160.936 144.982 160.49 144.493C156.788 140.431 154.239 135.782 153.371 131.511C152.502 127.239 153.382 123.674 155.827 121.554C158.272 119.435 162.095 118.925 166.501 120.13C170.907 121.334 175.559 124.162 179.49 128.024V128.024Z" fill="#5CA3AF"/>
<path d="M174.324 135.313C173.623 135.051 172.957 134.958 172.386 135.041C171.698 135.159 171.054 135.347 170.46 135.601L166.298 131.512C167.111 131.022 168.193 130.877 169.423 131.094L168.109 128.829C167.396 128.688 166.73 128.677 166.141 128.794C165.484 128.92 164.899 129.155 164.401 129.492L162.291 127.419L161.165 128.566L163.295 130.659C162.945 131.185 162.77 131.852 162.782 132.617C162.792 133.306 162.993 134.076 163.368 134.861C163.739 135.623 164.29 136.37 164.96 137.02C165.662 137.748 166.494 138.325 167.323 138.658C168.054 138.933 168.75 139.032 169.345 138.944C170.048 138.827 170.705 138.639 171.31 138.38L175.298 142.299C174.439 142.975 173.212 143.219 171.785 142.998L173.102 145.265C173.907 145.395 174.653 145.376 175.306 145.21C176.023 145.03 176.653 144.724 177.177 144.301L179.269 146.356L180.395 145.209L178.265 143.116C178.772 142.363 178.891 141.306 178.605 140.105C178.471 139.567 178.224 139.005 177.881 138.453C177.537 137.901 177.105 137.371 176.612 136.898C175.932 136.193 175.127 135.635 174.324 135.313V135.313ZM169.048 136.157C168.629 136.294 168.136 136.32 167.598 136.233C167.375 136.189 167.138 136.095 166.905 135.958C166.672 135.82 166.448 135.643 166.249 135.439C165.779 134.993 165.429 134.454 165.274 133.938C165.123 133.385 165.148 132.89 165.347 132.52L169.048 136.157ZM176.241 139.868C176.39 140.395 176.366 140.867 176.174 141.216L172.743 137.845C173.12 137.701 173.569 137.661 174.064 137.729C174.261 137.764 174.472 137.844 174.68 137.964C174.888 138.085 175.088 138.242 175.266 138.423C175.721 138.85 176.07 139.366 176.241 139.868V139.868Z" fill="white"/>
</svg>
