<svg width="189" height="187" viewBox="0 0 189 187" fill="none" xmlns="http://www.w3.org/2000/svg">
<mask id="mask0" mask-type="alpha" maskUnits="userSpaceOnUse" x="0" y="0" width="174" height="174">
<rect width="174" height="174" rx="26" fill="#C4C4C4"/>
</mask>
<g mask="url(#mask0)">
<path fill-rule="evenodd" clip-rule="evenodd" d="M216.207 -180.293L-154.293 190.207L-155.707 188.793L214.793 -181.707L216.207 -180.293ZM225.207 -168.293L-145.293 202.207L-146.707 200.793L223.793 -169.707L225.207 -168.293ZM242.207 -165.293L-128.293 205.207L-129.707 203.793L240.793 -166.707L242.207 -165.293ZM251.207 -153.293L-119.293 217.207L-120.707 215.793L249.793 -154.707L251.207 -153.293ZM263.207 -145.293L-107.293 225.207L-108.707 223.793L261.793 -146.707L263.207 -145.293ZM272.207 -133.293L-98.2929 237.207L-99.7071 235.793L270.793 -134.707L272.207 -133.293ZM289.207 -130.293L-81.2929 240.207L-82.7071 238.793L287.793 -131.707L289.207 -130.293ZM298.207 -118.293L-72.2929 252.207L-73.7071 250.793L296.793 -119.707L298.207 -118.293ZM310.207 -109.293L-60.2929 261.207L-61.7071 259.793L308.793 -110.707L310.207 -109.293ZM319.207 -97.2929L-51.2929 273.207L-52.7071 271.793L317.793 -98.7071L319.207 -97.2929ZM336.207 -94.2929L-34.2929 276.207L-35.7071 274.793L334.793 -95.7071L336.207 -94.2929ZM345.207 -82.2929L-25.2929 288.207L-26.7071 286.793L343.793 -83.7071L345.207 -82.2929ZM357.207 -74.2929L-13.2929 296.207L-14.7071 294.793L355.793 -75.7071L357.207 -74.2929ZM366.207 -62.2929L-4.29288 308.207L-5.70709 306.793L364.793 -63.7071L366.207 -62.2929ZM383.207 -59.2929L12.7071 311.207L11.2929 309.793L381.793 -60.7071L383.207 -59.2929Z" fill="#D6D6D6"/>
</g>
<rect x="1" y="1" width="172" height="172" rx="25" stroke="#D6D6D6" stroke-width="2"/>
<path d="M159.5 172.5L166 177L185.5 183H150.5L117 172.5H159.5Z" fill="#D6D6D6"/>
<circle cx="153.121" cy="165.121" r="18" transform="rotate(-11.0705 153.121 165.121)" fill="#5CA3AF"/>
<circle cx="153.121" cy="165.121" r="16" transform="rotate(-11.0705 153.121 165.121)" fill="white"/>
<path d="M167.914 173.026L168.887 170.188L188.5 176.5L185.5 183L167.914 173.026Z" fill="#5CA3AF"/>
</svg>
